<svg xmlns="http://www.w3.org/2000/svg" width="146.24" height="42"><path d="M0 42L28.34 0l28.33 42-28.33-23.78z" fill="#fe395f"/><path d="M28.34 26.31L9.11 42l19.23-6.58L47.57 42z" fill="#0ca7fe"/><path d="M79.37 24.15h-9.82l-1.86 5.48h-6L71.85 3H77l10.21 26.63h-6zm-8.3-4.44h6.79l-3.42-10zm75.06.92a9.33 9.33 0 0 1-3.25 6.76 11.49 11.49 0 0 1-7.69 2.47 10.36 10.36 0 0 1-8.19-3.44Q124 23 124 17v-1.67a15.56 15.56 0 0 1 1.38-6.75 10.16 10.16 0 0 1 3.93-4.48 12.55 12.55 0 0 1 13.55.9 10 10 0 0 1 3.32 6.92h-5.59a5.44 5.44 0 0 0-1.48-3.73A5.46 5.46 0 0 0 135.26 7a4.8 4.8 0 0 0-4.19 2c-.92 1.3-1.4 3.33-1.42 6.08v2q0 4.31 1.32 6.3a4.75 4.75 0 0 0 4.22 2 5.58 5.58 0 0 0 3.86-1.15 5.2 5.2 0 0 0 1.48-3.6zm-24.65 9h-5.6V3h5.6zM101.3 12.21L106.4 3h6.44l-7.92 13.18L113 29.63h-6.51l-5.23-9.31L96 29.63h-6.43l8.11-13.41L89.77 3h6.44zM64 38.77a1.68 1.68 0 0 0 1-.3 1 1 0 0 0 .45-.78H66a1.47 1.47 0 0 1-.3.78 1.9 1.9 0 0 1-.7.53 2.66 2.66 0 0 1-1 .2 2.21 2.21 0 0 1-1.67-.64 2.37 2.37 0 0 1-.61-1.7v-.15a2.61 2.61 0 0 1 .28-1.2 2 2 0 0 1 .79-.81 2.39 2.39 0 0 1 1.2-.29 2.25 2.25 0 0 1 1.44.45 1.58 1.58 0 0 1 .61 1.2h-.57a1.13 1.13 0 0 0-.45-.88 1.77 1.77 0 0 0-2.27.17 2.09 2.09 0 0 0-.44 1.4v.15a2 2 0 0 0 .44 1.38 1.58 1.58 0 0 0 1.25.49zm10.25-2a2.39 2.39 0 0 1 .29-1.2 2.1 2.1 0 0 1 .84-.83 2.55 2.55 0 0 1 1.24-.3 2.37 2.37 0 0 1 1.72.65 2.27 2.27 0 0 1 .66 1.68v.11a2.44 2.44 0 0 1-.3 1.21 2 2 0 0 1-.84.82 2.52 2.52 0 0 1-1.23.3 2.33 2.33 0 0 1-1.72-.65 2.3 2.3 0 0 1-.66-1.72zm.59.14a1.89 1.89 0 0 0 .49 1.36 1.67 1.67 0 0 0 1.3.53 1.64 1.64 0 0 0 1.28-.53 1.91 1.91 0 0 0 .5-1.4v-.1a2 2 0 0 0-.23-1 1.65 1.65 0 0 0-.63-.68 1.77 1.77 0 0 0-.93-.24 1.65 1.65 0 0 0-1.29.53 2 2 0 0 0-.49 1.41zm13.25-2.39v.76a1.88 1.88 0 0 1 .74-.63 2.14 2.14 0 0 1 1-.21 1.5 1.5 0 0 1 1.6.9 1.89 1.89 0 0 1 .76-.67 2.44 2.44 0 0 1 1-.23C94.38 34.41 95 35 95 36v3.09h-.6v-3a1.27 1.27 0 0 0-.31-.92 1.34 1.34 0 0 0-1-.3 1.76 1.76 0 0 0-1.08.36 1.2 1.2 0 0 0-.48.85v3.06H91V36a1.11 1.11 0 0 0-.33-.88 1.34 1.34 0 0 0-1-.3 1.62 1.62 0 0 0-1 .28 1.57 1.57 0 0 0-.59.82v3.17h-.59v-4.6zm20 2.36a2.49 2.49 0 0 1-.55 1.72 1.88 1.88 0 0 1-1.47.64 2.11 2.11 0 0 1-1.67-.67v2.33h-.59v-6.41h.55v.66a2 2 0 0 1 1.66-.74 1.87 1.87 0 0 1 1.5.63 2.6 2.6 0 0 1 .54 1.74zm-.59-.09a2.1 2.1 0 0 0-.42-1.39 1.37 1.37 0 0 0-1.16-.52 1.78 1.78 0 0 0-.93.23 1.4 1.4 0 0 0-.59.66V38a1.45 1.45 0 0 0 .6.6 1.89 1.89 0 0 0 .93.21 1.41 1.41 0 0 0 1.15-.51 2.29 2.29 0 0 0 .43-1.54zm12.6 2.36a2.06 2.06 0 0 1-.11-.65 1.92 1.92 0 0 1-.8.55 2.86 2.86 0 0 1-1 .19 2 2 0 0 1-1.24-.38 1.13 1.13 0 0 1-.47-.94 1.22 1.22 0 0 1 .64-1.07 3.51 3.51 0 0 1 1.8-.39H120v-.52a1 1 0 0 0-.35-.78 1.61 1.61 0 0 0-1-.29 1.77 1.77 0 0 0-1 .27.82.82 0 0 0-.41.66h-.59a1.14 1.14 0 0 1 .59-1 2.42 2.42 0 0 1 1.45-.41 2.24 2.24 0 0 1 1.4.39 1.28 1.28 0 0 1 .54 1.08V38a2.44 2.44 0 0 0 .16 1zm-1.85-.37a2.18 2.18 0 0 0 1-.25 1.5 1.5 0 0 0 .68-.66v-1h-1a2.86 2.86 0 0 0-1.38.29.79.79 0 0 0-.43 1 .77.77 0 0 0 .27.35 1.38 1.38 0 0 0 .87.24zm11.79-4.26v.8a2 2 0 0 1 .75-.65 2 2 0 0 1 1-.23 1.69 1.69 0 0 1 1.27.42 1.72 1.72 0 0 1 .42 1.25v3h-.58v-3a1.11 1.11 0 0 0-1.31-1.23 1.62 1.62 0 0 0-1 .3 1.75 1.75 0 0 0-.62.8v3.17h-.59v-4.66zm14 3.89l1.56-3.89h.63L144 39.91l-.12.24a1.42 1.42 0 0 1-1.35.84 1.74 1.74 0 0 1-.45-.06v-.43h.31a1.16 1.16 0 0 0 .7-.19 1.29 1.29 0 0 0 .45-.63l.26-.63-2-4.59h.64z" fill="#fff"/></svg>