<svg xmlns="http://www.w3.org/2000/svg" width="190" height="26"><path d="M1.5 0h70A1.5 1.5 0 0 1 73 1.5 1.5 1.5 0 0 1 71.5 3h-70A1.5 1.5 0 0 1 0 1.5 1.5 1.5 0 0 1 1.5 0zM99.5 0h25a1.5 1.5 0 0 1 1.5 1.5 1.5 1.5 0 0 1-1.5 1.5h-25A1.5 1.5 0 0 1 98 1.5 1.5 1.5 0 0 1 99.5 0zM152.5 0h9a1.5 1.5 0 0 1 1.5 1.5 1.5 1.5 0 0 1-1.5 1.5h-9a1.5 1.5 0 0 1-1.5-1.5 1.5 1.5 0 0 1 1.5-1.5z" fill="#fe395f"/><path d="M188.5 23h-70a1.5 1.5 0 0 0-1.5 1.5 1.5 1.5 0 0 0 1.5 1.5h70a1.5 1.5 0 0 0 1.5-1.5 1.5 1.5 0 0 0-1.5-1.5zM90.5 23h-25a1.5 1.5 0 0 0-1.5 1.5 1.5 1.5 0 0 0 1.5 1.5h25a1.5 1.5 0 0 0 1.5-1.5 1.5 1.5 0 0 0-1.5-1.5zM37.5 23h-9a1.5 1.5 0 0 0-1.5 1.5 1.5 1.5 0 0 0 1.5 1.5h9a1.5 1.5 0 0 0 1.5-1.5 1.5 1.5 0 0 0-1.5-1.5z" fill="#fff"/></svg>